<svg width="20" height="20" viewBox="0 0 20 20" fill="none" xmlns="http://www.w3.org/2000/svg">
<path d="M5 3.33334H11.6667C12.5507 3.33334 13.3986 3.68453 14.0237 4.30965C14.6488 4.93478 15 5.78262 15 6.66668C15 7.55073 14.6488 8.39858 14.0237 9.0237C13.3986 9.64882 12.5507 10 11.6667 10H5V3.33334Z" stroke="white" stroke-width="2" stroke-linecap="round" stroke-linejoin="round"/>
<path d="M5 10H12.5C13.3841 10 14.2319 10.3512 14.857 10.9763C15.4821 11.6014 15.8333 12.4493 15.8333 13.3333C15.8333 14.2174 15.4821 15.0652 14.857 15.6904C14.2319 16.3155 13.3841 16.6667 12.5 16.6667H5V10Z" stroke="white" stroke-width="2" stroke-linecap="round" stroke-linejoin="round"/>
</svg>
