<svg width="32" height="32" viewBox="0 0 32 32" fill="none" xmlns="http://www.w3.org/2000/svg">
<g clip-path="url(#clip0_11_310)">
<path d="M16 32C24.8366 32 32 24.8366 32 16C32 7.16344 24.8366 0 16 0C7.16344 0 0 7.16344 0 16C0 24.8366 7.16344 32 16 32Z" fill="#2A2C3D"/>
<path d="M20.0224 16.6262H17.1674V27.0856H12.8418V16.6262H10.7845V12.9504H12.8418V10.5717C12.8418 8.87066 13.6498 6.20703 17.2059 6.20703L20.41 6.22044V9.78848H18.0852C17.7039 9.78848 17.1677 9.979 17.1677 10.7904V12.9538H20.4003L20.0224 16.6262Z" fill="white"/>
</g>
<defs>
<clipPath id="clip0_11_310">
<rect width="32" height="32" fill="white"/>
</clipPath>
</defs>
</svg>
