<svg width="32" height="32" viewBox="0 0 32 32" fill="none" xmlns="http://www.w3.org/2000/svg">
<g clip-path="url(#clip0_11_349)">
<path d="M16.0142 7.84727C15.7327 7.84727 15.4544 7.86162 15.1802 7.88971C14.906 7.9178 14.6355 7.95942 14.3697 8.01406C14.1039 8.0687 13.8428 8.13636 13.5869 8.21622L12.8359 8.49199L12.1208 8.83726L11.4461 9.24784L10.8156 9.71941L10.2338 10.2479L9.70484 10.8291L9.23275 11.4589L8.82166 12.133L8.47619 12.8473C8.37234 13.0916 8.27997 13.342 8.20001 13.5977C8.12005 13.8533 8.05239 14.1144 7.99764 14.3799C7.9429 14.6454 7.90128 14.9155 7.87309 15.1895C7.8449 15.4636 7.83075 15.7416 7.83075 16.0227C7.83075 16.3038 7.8451 16.5818 7.87309 16.8558C7.90092 17.1277 7.94249 17.3979 7.99764 17.6656C8.05239 17.9321 8.12005 18.1921 8.20001 18.4478C8.27997 18.7035 8.37224 18.9538 8.47619 19.1982L8.82166 19.9124L9.23275 20.5865L9.70484 21.2163L10.2338 21.7976L10.8156 22.326L11.4461 22.7976L12.1208 23.2082L12.8359 23.5535L13.5869 23.8292L14.3697 24.0314C14.6376 24.0865 14.9081 24.128 15.1802 24.1558C15.4573 24.1841 15.7356 24.1982 16.0142 24.1982C16.2956 24.1982 16.5739 24.1838 16.848 24.1558C17.1201 24.128 17.3906 24.0865 17.6585 24.0314L18.4414 23.8292L19.1924 23.5535L19.9074 23.2082L20.5822 22.7976L21.2127 22.326L21.7946 21.7976L22.3236 21.2163L22.7957 20.5865L23.2067 19.9124L23.5522 19.1982L23.8284 18.4478C23.9084 18.1921 23.976 17.9311 24.0308 17.6656L24.1553 16.8557C24.1834 16.5817 24.1978 16.3037 24.1978 16.0226C24.1978 15.7415 24.1834 15.4635 24.1553 15.1894C24.1275 14.9176 24.0859 14.6474 24.0308 14.3798C23.976 14.1132 23.9084 13.8533 23.8284 13.5976L23.5522 12.8472L23.2067 12.1329L22.7957 11.4588L22.3236 10.829L21.7946 10.2478L21.2127 9.71931L20.5822 9.24773L19.9074 8.83716L19.1924 8.49189L18.4414 8.21612L17.6585 8.01396L16.848 7.88961C16.571 7.86131 16.2926 7.84715 16.0142 7.84717V7.84727ZM16.0142 10.6691C16.2002 10.6691 16.3838 10.6783 16.5647 10.6966L17.0977 10.7773L17.6127 10.9085L18.1058 11.0876L18.5746 11.3121L19.0154 11.5791L19.4275 11.8864L19.8074 12.231L20.1524 12.6105L20.4599 13.0223L20.7273 13.4637L20.9518 13.9322C21.0193 14.0925 21.0791 14.2568 21.1312 14.4249C21.1833 14.5929 21.2271 14.7646 21.2624 14.9395C21.2978 15.1144 21.3239 15.2924 21.3431 15.4731L21.3706 16.0232C21.3706 16.2091 21.3614 16.3926 21.3431 16.5734C21.3249 16.7542 21.298 16.9322 21.2624 17.107C21.2269 17.2818 21.183 17.4535 21.1312 17.6216L20.9518 18.1143L20.7273 18.5828L20.4599 19.0241L20.1524 19.4359L19.8074 19.8154L19.4275 20.1601L19.0154 20.4673L18.5746 20.7344L18.1058 20.9589L17.6127 21.138L17.0977 21.2692L16.5647 21.3498C16.3817 21.3681 16.1979 21.3773 16.014 21.3773C15.8301 21.3773 15.6463 21.3681 15.4633 21.3498L14.9303 21.2692C14.7553 21.2337 14.5834 21.1899 14.4152 21.138L13.9221 20.9589L13.4533 20.7344L13.0125 20.4673L12.6004 20.1601L12.2205 19.8154L11.8755 19.4359L11.568 19.0241L11.3006 18.5828L11.0761 18.1143L10.8967 17.6216L10.7655 17.107L10.6848 16.5734C10.6664 16.3906 10.6573 16.2069 10.6573 16.0232C10.6573 15.8395 10.6664 15.6559 10.6848 15.4731C10.7029 15.2924 10.7299 15.1143 10.7655 14.9395C10.8007 14.7659 10.8445 14.5942 10.8968 14.425L11.0762 13.9323L11.3007 13.4638L11.5681 13.0224L11.8756 12.6107L12.2206 12.2311L12.6005 11.8865L13.0126 11.5792L13.4534 11.3122L13.9222 11.0877C14.0836 11.0199 14.2482 10.9602 14.4154 10.9086L14.9305 10.7774C15.1055 10.7419 15.2836 10.7148 15.4635 10.6967C15.6465 10.6784 15.8303 10.6692 16.0143 10.6692L16.0142 10.6691Z" fill="#2A2C3D"/>
<path d="M24.5295 5.52173C24.4645 5.52174 24.3996 5.52503 24.3349 5.53157C24.2703 5.5381 24.206 5.54789 24.1423 5.56089C24.0786 5.57388 24.0156 5.59006 23.9536 5.60938C23.8915 5.62871 23.8304 5.65116 23.7706 5.67663C23.7107 5.70213 23.6522 5.73063 23.5952 5.76202C23.5382 5.79335 23.4827 5.82754 23.4291 5.86444C23.3755 5.90138 23.3237 5.941 23.274 5.98315C23.2243 6.02526 23.1768 6.06984 23.1315 6.11673C23.0862 6.16365 23.0433 6.21281 23.0029 6.26404C22.9626 6.31528 22.9248 6.36852 22.8897 6.42356C22.8546 6.47855 22.8223 6.53528 22.7928 6.59353C22.7633 6.65182 22.7367 6.71156 22.7131 6.77252C22.6896 6.83347 22.6691 6.89557 22.6517 6.95859C22.6344 7.0216 22.6201 7.08544 22.6091 7.14988C22.598 7.2143 22.5902 7.27924 22.5856 7.34445C22.5823 7.39065 22.5807 7.43695 22.5807 7.48326C22.5807 7.54869 22.5839 7.61407 22.5904 7.67917C22.5969 7.74423 22.6066 7.80893 22.6195 7.87302C22.6324 7.93711 22.6485 8.00051 22.6677 8.06299C22.6869 8.12548 22.7092 8.18696 22.7346 8.24721C22.7599 8.30747 22.7882 8.36642 22.8193 8.42384C22.8505 8.48125 22.8845 8.53705 22.9211 8.59104C22.9578 8.645 22.9972 8.69707 23.039 8.74707C23.0809 8.79711 23.1252 8.84501 23.1718 8.89059C23.2184 8.93615 23.2673 8.97933 23.3182 9.01997C23.3691 9.06064 23.422 9.09872 23.4767 9.13407C23.5314 9.16942 23.5878 9.20199 23.6457 9.23166C23.7036 9.26135 23.7629 9.28811 23.8235 9.31183C23.884 9.33552 23.9457 9.35615 24.0083 9.37365C24.0709 9.39111 24.1344 9.40541 24.1984 9.4165C24.2624 9.42763 24.3269 9.43553 24.3917 9.44018C24.4376 9.44346 24.4836 9.4451 24.5296 9.4451C24.5946 9.44512 24.6595 9.44187 24.7242 9.43536C24.7888 9.42883 24.8531 9.41904 24.9168 9.40604C24.9805 9.39305 25.0435 9.37687 25.1055 9.35755C25.1676 9.33822 25.2287 9.31577 25.2885 9.2903C25.3484 9.26483 25.4069 9.23636 25.4639 9.20501C25.521 9.17364 25.5764 9.13943 25.63 9.10249C25.6836 9.06558 25.7354 9.026 25.7851 8.98388C25.8348 8.94174 25.8824 8.89713 25.9276 8.8502C25.9729 8.80329 26.0158 8.75412 26.0562 8.70289C26.0965 8.65165 26.1344 8.59841 26.1694 8.54337C26.2045 8.48834 26.2369 8.43158 26.2663 8.3733C26.2958 8.31501 26.3224 8.25527 26.346 8.19431C26.3695 8.13336 26.39 8.07126 26.4074 8.00824C26.4248 7.94523 26.439 7.88139 26.45 7.81695C26.4611 7.75253 26.4689 7.68758 26.4735 7.62237C26.4768 7.57618 26.4784 7.52988 26.4784 7.48357C26.4784 7.41818 26.4752 7.35283 26.4687 7.28776C26.4622 7.2227 26.4525 7.158 26.4396 7.09391C26.4267 7.02982 26.4106 6.96642 26.3914 6.90395C26.3722 6.84145 26.3499 6.77997 26.3246 6.71973C26.2992 6.65946 26.2709 6.60051 26.2398 6.54309C26.2086 6.48568 26.1747 6.42988 26.138 6.37589C26.1013 6.3219 26.0619 6.26979 26.02 6.21976C25.9782 6.16972 25.9339 6.12182 25.8873 6.07623C25.8407 6.03068 25.7918 5.9875 25.7409 5.94686C25.69 5.90623 25.6371 5.86818 25.5824 5.83286C25.5277 5.79751 25.4713 5.76494 25.4134 5.73527C25.3555 5.70558 25.2962 5.67882 25.2356 5.6551C25.1751 5.63141 25.1134 5.61078 25.0508 5.59328C24.9882 5.57579 24.9248 5.56145 24.8607 5.55033C24.7967 5.53923 24.7322 5.53136 24.6674 5.52675C24.6215 5.52347 24.5755 5.52183 24.5295 5.52183V5.52173Z" fill="#2A2C3D"/>
<path d="M14.4623 0.0288626C13.5722 0.0274274 12.7779 0.0311174 12.0644 0.0411639L10.1515 0.0924217C9.58479 0.117025 9.0841 0.14911 8.63467 0.190629C8.40996 0.211337 8.19796 0.234506 7.99703 0.260032C7.80582 0.284132 7.61514 0.312194 7.42509 0.344199C7.24415 0.374954 7.07244 0.408167 6.9078 0.444252C6.74316 0.480338 6.5859 0.519295 6.43418 0.561122C6.28585 0.602022 6.13869 0.64701 5.99285 0.696033C5.84994 0.744215 5.71052 0.795268 5.57284 0.849806C5.29749 0.958883 5.0289 1.08128 4.75231 1.21845C4.53949 1.32404 4.34286 1.43096 4.15608 1.54414C3.9693 1.65732 3.79235 1.77685 3.6191 1.90705C3.44068 2.04178 3.26871 2.18485 3.10376 2.33577C2.93133 2.49282 2.7552 2.66556 2.57221 2.8586C2.34227 3.09982 2.14247 3.32474 1.96512 3.54545C1.87644 3.65576 1.7934 3.76483 1.71518 3.87453C1.63783 3.98263 1.56388 4.09312 1.49344 4.20585C1.42373 4.3176 1.35771 4.43139 1.29456 4.54846C1.23043 4.66755 1.16982 4.7885 1.1128 4.91116C0.996141 5.16171 0.887269 5.43153 0.778603 5.73272C0.697986 5.95539 0.625798 6.18101 0.562193 6.40912C0.4973 6.64224 0.439584 6.88612 0.388121 7.1499C0.336658 7.41367 0.291757 7.69733 0.252288 8.01103C0.209757 8.35489 0.175779 8.69975 0.150388 9.0453C0.121683 9.42523 0.0978998 9.84329 0.0784219 10.3086L0.03229 11.8558L0.00748123 13.7417L0.000305176 16.0214L0.0213208 19.3364L0.0869307 21.8481L0.137471 22.8291L0.200621 23.6421C0.220864 23.8612 0.246192 24.0798 0.276585 24.2978C0.304264 24.4913 0.333993 24.6607 0.365978 24.8073C0.430878 25.1053 0.50762 25.4007 0.596023 25.6926C0.680667 25.9721 0.777466 26.2478 0.886142 26.5189C0.992963 26.7844 1.10983 27.0405 1.23695 27.2869C1.36407 27.5334 1.50144 27.7702 1.64906 27.9977C1.79668 28.2251 1.95456 28.4433 2.12309 28.6521C2.29144 28.861 2.4705 29.0609 2.65956 29.2512C2.8489 29.4419 3.0486 29.6233 3.25907 29.7958C3.47202 29.9702 3.69338 30.1341 3.92234 30.2868C4.13486 30.4289 4.34512 30.559 4.55691 30.6784C4.76871 30.7979 4.98235 30.9062 5.20194 31.0047C5.42153 31.1033 5.64665 31.1919 5.88182 31.2717C6.11699 31.3514 6.36201 31.4224 6.62096 31.4853C6.87992 31.5483 7.15404 31.6035 7.44416 31.6517C7.73428 31.6999 8.04439 31.7412 8.37572 31.7768C8.70705 31.8124 9.06052 31.8418 9.44034 31.8664C9.82016 31.891 10.2261 31.9107 10.6623 31.9265C11.3362 31.9509 12.3562 31.9651 13.5325 31.9705L17.3404 31.9629L20.9463 31.9123L22.3173 31.8738L23.2105 31.8278C23.4022 31.8123 23.5898 31.7938 23.7709 31.7722C23.9519 31.7505 24.1305 31.7258 24.3044 31.6977C24.4782 31.6697 24.6482 31.6383 24.8152 31.6034C24.9803 31.5691 25.1445 31.5307 25.3077 31.4883C25.4693 31.4473 25.6286 31.4007 25.7862 31.3511C25.9439 31.3016 26.0999 31.2481 26.255 31.1907C26.411 31.1329 26.5656 31.0714 26.7186 31.0061C26.8727 30.9405 27.0266 30.8703 27.181 30.7959C27.4181 30.6817 27.609 30.5865 27.7766 30.4935C27.9342 30.407 28.0861 30.3103 28.2311 30.204C28.3742 30.0986 28.5165 29.9787 28.6806 29.8276C28.8446 29.6764 29.0304 29.4944 29.2606 29.2641C29.4628 29.062 29.6334 28.8863 29.7805 28.7264C29.9277 28.5666 30.0516 28.4228 30.1603 28.2842C30.2639 28.1527 30.3604 28.0157 30.4494 27.8739C30.5362 27.7355 30.6161 27.5918 30.6976 27.4324C30.8203 27.1925 30.9293 26.9703 31.027 26.756C31.1219 26.5494 31.2086 26.3392 31.2868 26.1257C31.3639 25.914 31.4306 25.6986 31.4868 25.4804C31.5446 25.2559 31.5945 25.0189 31.6375 24.7589C31.6806 24.4989 31.717 24.216 31.7485 23.9C31.7801 23.5841 31.807 23.2349 31.8305 22.8426L31.8931 21.5255L31.9468 19.8877L31.9851 18.0629L31.9999 16.1549L31.9657 12.4074L31.9198 10.7289L31.8573 9.28775L31.7794 8.16418C31.7511 7.85151 31.7205 7.60527 31.6882 7.43878C31.6523 7.25483 31.6122 7.07172 31.568 6.88961C31.5249 6.7124 31.4776 6.53626 31.426 6.36135C31.3757 6.19093 31.3211 6.02183 31.2622 5.8542C31.204 5.68864 31.1423 5.52656 31.0777 5.36797C31.0131 5.20938 30.9432 5.05448 30.8704 4.90286C30.7976 4.75124 30.7213 4.60331 30.6413 4.45876C30.5612 4.31421 30.4778 4.17325 30.3905 4.03578C30.3033 3.89831 30.2124 3.76432 30.1178 3.63392C30.0237 3.50394 29.9256 3.37693 29.8236 3.25308C29.7221 3.1299 29.6167 3.00997 29.5076 2.89345C29.3987 2.77708 29.2861 2.66419 29.1701 2.55495C29.0539 2.44566 28.9343 2.33987 28.8108 2.23756C28.687 2.13491 28.5599 2.03614 28.4299 1.94139C28.2985 1.84567 28.1642 1.75398 28.0272 1.66645C27.8884 1.57766 27.7469 1.49301 27.603 1.41262C27.4566 1.33087 27.3079 1.25334 27.1571 1.18011C26.9067 1.05842 26.6752 0.950477 26.448 0.854727C26.2246 0.759701 25.9968 0.675304 25.7654 0.601821C25.5327 0.528522 25.2905 0.465681 25.0239 0.41145C24.7574 0.357219 24.4668 0.31201 24.1378 0.273566C23.8088 0.235123 23.4415 0.204062 23.0214 0.178228C22.6013 0.152394 22.1288 0.132094 21.5892 0.115692L19.7557 0.0746861L17.435 0.0473146L14.4633 0.0290659L14.4623 0.0288626ZM16.0056 2.84824L20.2911 2.87264L21.9078 2.90381C22.353 2.91631 22.6927 2.93097 22.8919 2.94789C23.1513 2.96972 23.3983 2.9971 23.6346 3.0299C23.8614 3.06121 24.0871 3.10016 24.3112 3.14666C24.5265 3.19177 24.7319 3.24303 24.9284 3.30085C25.1249 3.35867 25.3126 3.42346 25.4927 3.49511C25.6729 3.56677 25.8451 3.64561 26.0108 3.73193C26.1753 3.81759 26.3351 3.91187 26.4896 4.01436C26.6434 4.11636 26.7916 4.22626 26.9355 4.34466C27.0795 4.46307 27.219 4.58998 27.3552 4.72571C27.4991 4.86892 27.6317 5.01481 27.754 5.1653C27.8759 5.31486 27.9886 5.47161 28.0916 5.63472C28.1958 5.80014 28.2897 5.97184 28.3727 6.14883C28.4576 6.32926 28.5339 6.51994 28.6023 6.72261C28.6708 6.92528 28.7318 7.14067 28.7858 7.37082C28.8424 7.61482 28.8898 7.86086 28.9279 8.10842C28.9689 8.37086 29.004 8.65072 29.0337 8.95038C29.0634 9.25003 29.0881 9.56957 29.1083 9.91146C29.1245 10.1857 29.1387 10.5476 29.1507 10.975L29.1807 12.4322L29.2037 16.0018L29.1775 19.568L29.1462 21.0211L29.103 22.0779C29.0731 22.5727 29.0415 22.9887 29.0038 23.3508C28.9848 23.5319 28.9643 23.6994 28.9416 23.8565C28.9202 24.005 28.895 24.1529 28.8658 24.3C28.8391 24.4342 28.8082 24.5676 28.773 24.6998C28.7393 24.826 28.7014 24.9511 28.6593 25.0747C28.6169 25.199 28.5708 25.3219 28.521 25.4434C28.4684 25.5716 28.4129 25.6987 28.3545 25.8244C28.3025 25.9367 28.2478 26.0459 28.19 26.1522C28.1328 26.2574 28.0721 26.3607 28.0079 26.4618C27.9444 26.5619 27.8778 26.6592 27.808 26.7534C27.7387 26.8473 27.666 26.9387 27.5901 27.0273C27.5144 27.1156 27.4355 27.2011 27.3536 27.2836C27.2716 27.3662 27.1865 27.4458 27.0983 27.5227C27.0102 27.5996 26.9187 27.6734 26.8241 27.7445C26.7295 27.8157 26.6316 27.884 26.5304 27.9494C26.4292 28.0148 26.3248 28.0775 26.2171 28.1374C26.1094 28.1973 25.9982 28.2545 25.8839 28.3089C25.7676 28.3641 25.6497 28.4159 25.5304 28.4641C25.4069 28.5139 25.2822 28.5602 25.1562 28.603C24.8999 28.6903 24.6295 28.767 24.345 28.8332C24.0484 28.9016 23.749 28.9577 23.4478 29.0011C23.3319 29.018 23.0657 29.0339 22.6843 29.0486L21.2311 29.089L17.111 29.1425L12.7985 29.1493L11.105 29.1313L10.0053 29.097L9.19441 29.04C8.94263 29.0188 8.70848 28.9952 8.4891 28.9685C8.26972 28.9417 8.0654 28.9119 7.87319 28.8783C7.69104 28.8468 7.50999 28.8092 7.33037 28.7655C7.16658 28.7257 7.00448 28.6792 6.84444 28.6263C6.69016 28.575 6.54264 28.5186 6.39912 28.4566C6.2556 28.3946 6.11618 28.3266 5.97809 28.2524C5.84 28.1782 5.70335 28.0976 5.56515 28.0098C5.4609 27.9435 5.36012 27.8765 5.26314 27.8054C5.16616 27.7344 5.07246 27.6636 4.98225 27.5893C4.89204 27.5151 4.80541 27.4386 4.72186 27.3599C4.63887 27.2816 4.55872 27.2002 4.48157 27.1161C4.40468 27.0323 4.33117 26.9459 4.26064 26.8566C4.18984 26.7668 4.12237 26.6745 4.05838 26.5798C3.99344 26.4836 3.93199 26.3851 3.87416 26.2845C3.81573 26.183 3.76016 26.0781 3.70737 25.9698C3.65369 25.8595 3.6036 25.7474 3.55718 25.6339C3.51003 25.5182 3.46533 25.3989 3.4233 25.2757C3.33923 25.0291 3.26542 24.7667 3.20125 24.4868C3.13707 24.2069 3.08233 23.9096 3.03599 23.5929C2.98966 23.2761 2.95234 22.9403 2.92261 22.5833C2.90067 22.3203 2.88325 21.9108 2.86992 21.3941L2.84203 19.5565L2.85229 14.8721L2.93297 10.3958L2.99448 8.81875L3.02933 8.29745C3.04143 8.15824 3.05393 8.05511 3.06675 7.99319C3.10899 7.78949 3.15153 7.59994 3.19551 7.42248C3.23659 7.25508 3.2823 7.08883 3.33257 6.92395C3.38034 6.76833 3.43068 6.62256 3.4845 6.48447C3.5364 6.3507 3.59424 6.21931 3.65785 6.0907C3.71998 5.96564 3.78671 5.8459 3.85919 5.72934C3.93167 5.61278 4.00989 5.4997 4.09518 5.38724C4.18048 5.27478 4.27233 5.16376 4.37228 5.0512C4.47224 4.93864 4.58018 4.82495 4.69726 4.70777C4.8337 4.57055 4.97577 4.43905 5.12311 4.3136C5.26223 4.19524 5.4073 4.08407 5.55777 3.98053C5.7057 3.87801 5.85743 3.78677 6.0154 3.70291C6.17338 3.61906 6.33761 3.5433 6.51035 3.47513C6.68308 3.40695 6.86454 3.34596 7.05675 3.2906C7.25869 3.23395 7.46287 3.18563 7.66877 3.14574C7.88528 3.1033 8.11523 3.06629 8.36075 3.034C8.60628 3.00171 8.86749 2.97382 9.14674 2.94963C9.34152 2.93282 9.67715 2.91785 10.1191 2.90524L11.7276 2.87346L16.0064 2.84732L16.0056 2.84824Z" fill="#2A2C3D"/>
</g>
<defs>
<clipPath id="clip0_11_349">
<rect width="32" height="32" fill="white"/>
</clipPath>
</defs>
</svg>
