<svg width="32" height="32" viewBox="0 0 32 32" fill="none" xmlns="http://www.w3.org/2000/svg">
<g clip-path="url(#clip0_11_354)">
<path d="M29.63 0.000976562H2.362C1.06 0.000976562 0 1.03398 0 2.30598V29.69C0 30.965 1.06 32 2.362 32H29.632C30.937 32 32 30.965 32 29.69V2.30598C32 1.03398 30.937 0.000976562 29.63 0.000976562Z" fill="#2A2C3D"/>
<path d="M4.74503 11.997H9.50003V27.267H4.74503V11.997ZM7.11903 4.39697C8.63603 4.39697 9.86903 5.62997 9.86903 7.14697C9.86903 8.66397 8.63603 9.89997 7.12003 9.89997C6.39028 9.89839 5.69086 9.60787 5.17476 9.09195C4.65865 8.57603 4.36788 7.87672 4.36603 7.14697C4.36603 6.78559 4.43726 6.42774 4.57565 6.0939C4.71403 5.76006 4.91687 5.45677 5.17254 5.20137C5.42822 4.94597 5.73173 4.74347 6.06573 4.60544C6.39972 4.46742 6.75764 4.39658 7.11903 4.39697ZM12.469 11.997H17.021V14.084H17.084C17.718 12.884 19.266 11.618 21.584 11.618C26.39 11.618 27.277 14.781 27.277 18.892V27.268H22.534V19.84C22.534 18.07 22.502 15.79 20.068 15.79C17.598 15.79 17.218 17.72 17.218 19.71V27.264H12.476V11.994L12.469 11.997Z" fill="white"/>
</g>
<defs>
<clipPath id="clip0_11_354">
<rect width="32" height="32" fill="white"/>
</clipPath>
</defs>
</svg>
